<?xml version="1.0" standalone="no"?>
<!DOCTYPE svg PUBLIC "-//W3C//DTD SVG 20010904//EN"
 "http://www.w3.org/TR/2001/REC-SVG-20010904/DTD/svg10.dtd">
<svg version="1.0" xmlns="http://www.w3.org/2000/svg"
 width="2560.000000pt" height="1341.000000pt" viewBox="0 0 2560.000000 1341.000000"
 preserveAspectRatio="xMidYMid meet">

<g transform="translate(0.000000,1341.000000) scale(0.100000,-0.100000)"
fill="#000000" stroke="none">
<path d="M1267 10293 c-8 -13 11 -245 27 -339 111 -635 466 -1026 1015 -1118
111 -19 301 -20 350 -2 66 24 76 51 75 194 -2 333 -125 634 -347 849 -219 213
-518 342 -932 402 -153 23 -182 25 -188 14z"/>
<path d="M3595 9930 c-301 -78 -528 -238 -639 -449 -66 -126 -91 -278 -75
-446 14 -149 40 -176 153 -156 37 6 105 25 153 41 255 87 425 279 499 565 22
83 27 130 31 283 l6 182 -29 -1 c-16 0 -60 -9 -99 -19z"/>
<path d="M4275 9029 c-192 -20 -430 -77 -855 -204 -312 -93 -460 -130 -602
-150 -143 -20 -373 -18 -520 3 -65 10 -127 14 -138 10 -20 -7 -20 -10 -20
-2441 0 -2184 2 -2436 15 -2447 13 -11 40 -8 153 19 226 52 328 64 537 64 221
1 260 -4 740 -83 730 -121 1058 -143 1425 -95 794 103 1370 584 1532 1279 30
128 37 388 14 520 -86 504 -425 899 -906 1054 -72 23 -216 52 -261 52 -38 0
-37 11 4 34 57 34 191 142 242 197 173 185 279 388 332 639 25 118 25 372 0
490 -82 382 -315 697 -657 887 -140 77 -351 143 -538 168 -121 16 -364 18
-497 4z m-40 -671 c171 -57 314 -192 397 -376 94 -207 102 -495 21 -731 -63
-183 -211 -367 -358 -443 -150 -78 -344 -114 -573 -106 -160 5 -197 18 -207
71 -4 17 -5 280 -2 582 4 611 5 626 71 760 71 143 198 234 371 265 71 13 210
2 280 -22z m-125 -2053 c155 -24 321 -80 422 -144 73 -47 186 -159 248 -249
228 -327 270 -822 100 -1180 -50 -106 -88 -161 -169 -246 -158 -165 -359 -246
-576 -233 -319 20 -527 197 -597 507 -21 91 -22 123 -25 779 -3 516 -1 691 8
713 6 16 25 36 40 44 67 34 348 39 549 9z"/>
<path d="M8080 8999 c-320 -153 -704 -274 -1173 -368 -107 -22 -208 -46 -225
-55 -42 -22 -62 -53 -62 -97 0 -48 33 -80 110 -108 114 -42 155 -110 171 -289
11 -132 11 -3627 -1 -3769 -9 -118 -31 -187 -72 -230 -11 -12 -53 -35 -92 -49
-38 -15 -81 -38 -93 -50 -32 -32 -31 -87 2 -120 25 -25 28 -26 128 -20 254 14
1197 18 1417 6 124 -7 239 -12 255 -11 49 2 80 32 83 78 4 55 -22 81 -119 122
-116 49 -142 97 -159 285 -6 69 -10 978 -10 2384 l0 2273 -25 24 c-32 33 -57
31 -135 -6z"/>
<path d="M10320 7741 c-616 -66 -1141 -391 -1443 -894 -301 -500 -377 -1164
-201 -1746 233 -769 861 -1270 1679 -1340 786 -68 1464 231 1857 818 156 234
255 486 310 787 20 114 23 159 22 394 0 244 -3 276 -27 400 -58 294 -155 537
-306 761 -288 429 -715 700 -1261 800 -118 22 -497 34 -630 20z m71 -481 c336
-63 637 -642 784 -1505 145 -855 75 -1345 -211 -1486 -60 -30 -68 -31 -156
-27 -103 5 -154 24 -244 89 -287 210 -528 858 -638 1714 -71 549 -18 939 149
1111 93 95 191 127 316 104z"/>
<path d="M14525 7744 c-608 -63 -1098 -343 -1413 -807 -227 -335 -336 -684
-349 -1117 -9 -302 25 -537 114 -793 123 -354 322 -641 593 -856 115 -91 160
-121 281 -185 347 -183 762 -263 1184 -227 617 53 1104 323 1436 796 414 588
474 1453 150 2130 -96 201 -189 333 -350 498 -273 280 -608 455 -1021 533
-114 22 -170 26 -360 29 -124 2 -243 1 -265 -1z m109 -504 c327 -123 613 -754
740 -1635 36 -245 46 -376 46 -585 0 -279 -35 -460 -115 -595 -78 -133 -178
-189 -325 -183 -73 3 -96 8 -154 37 -337 166 -603 817 -727 1786 -30 229 -33
595 -6 730 34 172 79 276 155 357 103 110 241 142 386 88z"/>
<path d="M19345 7740 c-182 -24 -386 -97 -531 -193 -108 -70 -256 -221 -333
-337 -35 -52 -67 -96 -71 -98 -4 -2 -10 68 -12 155 -3 137 -7 164 -26 208 -29
64 -46 82 -106 112 -96 49 -153 52 -803 53 l-602 0 -26 -23 c-20 -17 -27 -32
-27 -60 0 -47 9 -58 97 -117 39 -26 83 -65 97 -86 61 -88 59 -19 56 -1645 l-3
-1484 -23 -57 c-27 -67 -72 -110 -139 -132 -74 -25 -113 -62 -115 -110 -1 -32
4 -44 27 -64 l29 -24 170 8 c230 12 1367 10 1486 -3 146 -15 200 7 200 82 0
44 -34 77 -105 104 -32 12 -71 31 -86 42 -42 30 -77 112 -89 209 -6 52 -10
423 -10 980 0 975 4 1056 56 1235 81 280 226 450 434 508 201 56 403 9 531
-124 94 -98 153 -237 197 -463 13 -69 16 -232 19 -1091 3 -684 0 -1031 -7
-1078 -19 -121 -63 -181 -156 -213 -70 -23 -124 -70 -124 -108 0 -17 11 -39
30 -58 l31 -30 107 6 c259 15 1124 19 1405 6 283 -13 289 -12 315 7 21 16 28
30 30 65 4 55 -10 69 -109 109 -84 34 -104 50 -129 99 -44 88 -45 103 -45
1125 0 1063 0 1064 61 1265 47 155 98 245 194 341 72 73 96 90 161 117 240 99
502 40 636 -142 115 -156 166 -339 183 -656 12 -224 12 -1628 0 -1822 -13
-216 -44 -275 -170 -323 -88 -34 -112 -59 -108 -115 3 -49 34 -79 83 -81 17
-1 132 4 256 11 235 13 1229 8 1397 -8 45 -4 96 -4 112 1 42 11 64 48 57 94
-8 45 -31 64 -118 98 -36 14 -76 36 -87 48 -37 39 -62 111 -72 208 -6 55 -10
500 -10 1070 0 1026 -3 1100 -46 1319 -129 645 -507 994 -1153 1061 -158 16
-427 7 -554 -20 -278 -59 -487 -169 -668 -352 -94 -94 -194 -230 -246 -332
l-25 -50 -48 99 c-168 349 -470 560 -910 639 -111 19 -457 29 -565 15z"/>
</g>
</svg>
