<?xml version="1.0" standalone="no"?>
<!DOCTYPE svg PUBLIC "-//W3C//DTD SVG 20010904//EN"
 "http://www.w3.org/TR/2001/REC-SVG-20010904/DTD/svg10.dtd">
<svg version="1.0" xmlns="http://www.w3.org/2000/svg"
 width="3840.000000pt" height="2160.000000pt" viewBox="0 0 3840.000000 2160.000000"
 preserveAspectRatio="xMidYMid meet">

<g transform="translate(0.000000,2160.000000) scale(0.100000,-0.100000)"
fill="#000000" stroke="none">
<path d="M10328 13653 c12 -2 30 -2 40 0 9 3 -1 5 -23 4 -22 0 -30 -2 -17 -4z"/>
<path d="M8250 13638 c-1014 -47 -1794 -227 -2654 -613 -132 -59 -423 -208
-546 -280 -603 -351 -1015 -662 -1503 -1135 -246 -238 -566 -622 -641 -767
-38 -76 -8 -720 54 -1133 39 -262 117 -610 185 -830 82 -265 100 -319 116
-357 10 -24 25 -43 34 -43 8 0 15 -5 15 -11 0 -5 -4 -7 -10 -4 -11 7 -13 -6
-4 -29 5 -13 8 -13 19 -3 7 8 15 22 19 33 3 10 3 3 0 -17 -2 -20 -1 -45 3 -55
6 -14 9 -8 14 26 4 33 6 22 6 -40 0 -51 -3 -75 -8 -60 -12 45 -29 83 -34 78
-3 -3 6 -34 19 -69 14 -35 25 -58 26 -51 0 9 31 12 120 12 l120 0 0 -25 0 -25
160 0 c136 0 160 -2 160 -15 0 -11 11 -15 40 -15 36 0 40 -2 40 -25 0 -25 1
-25 80 -25 l80 0 0 40 0 40 80 0 80 0 0 -80 0 -80 200 0 c171 0 200 -2 200
-15 0 -11 11 -15 40 -15 36 0 40 -2 40 -25 0 -22 4 -25 40 -25 l40 0 0 40 0
40 40 0 40 0 0 -40 0 -40 40 0 c29 0 40 -4 40 -15 0 -11 11 -15 40 -15 36 0
40 -2 40 -25 0 -22 4 -25 40 -25 36 0 40 3 40 25 0 25 1 25 80 25 l80 0 0 -40
c0 -40 0 -40 39 -40 l40 0 3 48 3 47 32 -32 c26 -28 38 -33 77 -33 l46 0 0
-40 0 -40 40 0 c36 0 40 3 40 25 0 23 4 25 40 25 29 0 40 4 40 15 0 11 11 15
40 15 l40 0 0 -40 0 -40 -40 0 c-29 0 -40 -4 -40 -15 0 -12 16 -15 80 -15 79
0 80 0 80 -25 0 -25 1 -25 80 -25 l80 0 0 40 0 40 40 0 40 0 0 -40 0 -40 65 0
65 0 0 -40 0 -40 55 0 c52 0 55 1 55 25 0 23 4 25 40 25 l40 0 0 -65 c0 -63 1
-65 25 -65 23 0 25 -4 25 -40 0 -29 4 -40 15 -40 11 0 15 11 15 40 l0 40 80 0
80 0 0 40 c0 29 4 40 15 40 11 0 15 11 15 40 0 36 3 40 25 40 25 0 25 1 25 79
0 53 -4 81 -12 83 -9 3 -9 6 0 12 7 4 12 2 12 -3 0 -6 18 -11 40 -11 l40 0 0
80 c0 50 -4 80 -11 80 -5 0 -7 5 -3 11 4 8 9 7 14 -2 6 -9 17 -4 42 22 l33 34
3 -32 c5 -50 32 -44 32 7 0 38 2 40 30 40 23 0 28 3 23 17 -5 13 -2 15 15 11
25 -7 30 9 6 19 -8 3 -13 12 -10 19 7 17 -34 29 -70 20 -24 -6 -25 -5 -11 8
11 12 22 13 48 6 45 -13 55 -12 41 3 -7 6 -18 12 -25 12 -7 0 -12 5 -12 11 0
7 -40 52 -90 100 -109 109 -205 216 -275 309 -55 72 -166 234 -186 270 -6 11
-30 54 -54 95 -353 615 -453 1412 -269 2129 166 645 544 1209 1078 1611 346
261 863 494 1371 619 253 63 294 71 519 106 286 43 352 51 782 88 l365 32
-930 0 c-512 0 -1001 -3 -1086 -7z m-5023 -4960 c-3 -8 -6 -5 -6 6 -1 11 2 17
5 13 3 -3 4 -12 1 -19z m23 -48 c0 -5 -2 -10 -4 -10 -3 0 -8 5 -11 10 -3 6 -1
10 4 10 6 0 11 -4 11 -10z m7 -42 c-3 -8 -6 -5 -6 6 -1 11 2 17 5 13 3 -3 4
-12 1 -19z m20 -23 c-1 -19 -5 -31 -10 -26 -7 7 0 61 8 61 2 0 3 -16 2 -35z
m626 -162 c-13 -2 -33 -2 -45 0 -13 2 -3 4 22 4 25 0 35 -2 23 -4z m160 0
c-13 -2 -33 -2 -45 0 -13 2 -3 4 22 4 25 0 35 -2 23 -4z m2904 -115 c-3 -8 -6
-5 -6 6 -1 11 2 17 5 13 3 -3 4 -12 1 -19z m-2264 -45 c-13 -2 -33 -2 -45 0
-13 2 -3 4 22 4 25 0 35 -2 23 -4z m2257 -73 c0 -5 -5 -10 -11 -10 -5 0 -7 5
-4 10 3 6 8 10 11 10 2 0 4 -4 4 -10z m-1557 -7 c-24 -2 -62 -2 -85 0 -24 2
-5 4 42 4 47 0 66 -2 43 -4z m1092 -313 c3 -5 1 -10 -4 -10 -6 0 -11 5 -11 10
0 6 2 10 4 10 3 0 8 -4 11 -10z"/>
<path d="M15535 13094 c-411 -60 -725 -216 -982 -488 -118 -124 -176 -206
-248 -351 -102 -203 -153 -419 -175 -748 -13 -186 -13 -1212 0 -1392 33 -473
131 -752 359 -1027 159 -192 398 -366 631 -458 170 -68 327 -100 526 -107 498
-19 895 126 1209 441 183 183 296 368 381 622 34 103 84 305 84 343 0 21 -2
21 -435 21 -422 0 -435 -1 -435 -19 0 -34 -60 -191 -103 -270 -53 -96 -168
-215 -257 -264 -123 -67 -192 -82 -385 -82 -168 0 -171 1 -250 33 -228 91
-379 267 -434 507 -41 183 -61 480 -61 950 0 659 35 972 128 1150 51 97 193
239 282 282 125 60 192 75 330 75 160 -1 250 -20 367 -78 78 -38 105 -59 171
-129 101 -106 159 -219 218 -422 3 -10 98 -13 434 -13 391 0 430 1 430 16 0
40 -55 258 -90 356 -200 559 -588 906 -1145 1024 -100 21 -153 26 -320 29
-110 2 -213 1 -230 -1z"/>
<path d="M26215 12983 c-494 -61 -830 -235 -1064 -552 -151 -204 -227 -441
-238 -741 -11 -310 65 -569 231 -794 147 -199 477 -385 781 -440 50 -9 245
-36 435 -61 376 -49 441 -66 548 -134 151 -98 222 -248 208 -442 -18 -260
-148 -407 -433 -486 -95 -26 -107 -27 -353 -27 -199 -1 -275 3 -345 16 -255
48 -437 128 -606 264 -44 35 -83 64 -87 64 -5 0 -129 -121 -276 -270 -172
-173 -266 -275 -263 -284 10 -26 191 -177 297 -248 241 -161 517 -259 855
-304 186 -25 606 -26 765 -1 314 49 604 164 803 319 339 263 504 640 484 1103
-19 415 -178 743 -451 928 -72 49 -228 124 -326 156 -148 48 -290 76 -615 121
-414 57 -444 63 -554 117 -208 103 -304 272 -274 485 21 144 77 249 178 330
135 109 270 148 520 148 227 0 379 -26 546 -92 85 -34 237 -128 279 -173 13
-14 29 -25 35 -25 6 0 132 118 280 263 l269 263 -85 72 c-188 163 -400 279
-634 347 -207 60 -417 86 -685 84 -107 -1 -208 -4 -225 -6z"/>
<path d="M35310 12975 c-259 -36 -492 -120 -690 -251 -102 -66 -266 -231 -329
-329 -90 -138 -148 -275 -187 -445 -24 -104 -30 -433 -10 -550 39 -220 150
-451 284 -585 114 -116 353 -255 537 -314 116 -38 187 -50 615 -107 381 -51
436 -64 549 -137 134 -88 200 -215 201 -389 0 -117 -13 -185 -50 -258 -75
-147 -206 -235 -425 -286 -67 -16 -121 -19 -325 -19 -266 0 -372 14 -547 71
-156 50 -365 171 -437 252 -11 12 -24 22 -30 22 -6 0 -135 -124 -286 -275
l-275 -276 50 -45 c288 -260 536 -390 900 -473 250 -56 630 -76 900 -46 912
101 1436 670 1365 1479 -57 652 -384 986 -1085 1110 -77 14 -243 39 -370 55
-390 53 -424 62 -558 148 -90 57 -122 92 -166 183 -32 67 -36 85 -39 168 -9
227 97 403 301 501 126 61 219 75 457 68 323 -9 511 -68 716 -222 47 -36 90
-64 94 -63 4 2 126 119 270 261 l263 257 -34 36 c-54 58 -206 171 -304 229
-210 123 -444 196 -735 230 -153 18 -488 18 -620 0z"/>
<path d="M17920 10746 l0 -2185 123 -4 c67 -2 676 -5 1352 -7 677 -2 1266 -4
1310 -4 l80 -1 3 360 c1 198 0 370 -3 383 l-5 22 -1005 0 -1005 0 0 530 c0
497 1 530 18 532 9 1 397 2 862 2 l845 1 0 380 0 380 -862 3 -863 2 0 515 0
515 1010 0 1010 0 0 380 0 380 -1435 0 -1435 0 0 -2184z"/>
<path d="M21620 10745 l0 -2185 1410 0 1410 0 0 380 0 380 -982 2 -983 3 -3
1803 -2 1802 -425 0 -425 0 0 -2185z"/>
<path d="M28600 10745 l0 -2185 420 0 420 0 2 2163 c2 1189 2 2172 0 2185 l-3
22 -420 0 -419 0 0 -2185z"/>
<path d="M30303 11393 c3 -1350 5 -1547 19 -1614 30 -146 60 -245 104 -350
193 -458 616 -782 1150 -881 100 -18 153 -22 339 -21 198 0 233 3 347 26 326
68 585 204 804 422 219 218 338 451 411 802 14 69 17 252 20 1616 l4 1537
-425 0 -426 0 -3 -1517 -3 -1518 -21 -76 c-94 -334 -330 -523 -678 -545 -346
-23 -626 147 -739 447 -58 154 -56 92 -58 1714 l-3 1490 -423 3 -423 2 4
-1537z"/>
<path d="M37383 9240 c-86 -18 -162 -73 -213 -156 -29 -49 -34 -67 -38 -138
-3 -65 0 -92 17 -137 59 -155 225 -245 381 -205 101 26 181 93 224 186 32 71
29 187 -8 268 -45 99 -127 161 -237 182 -58 11 -67 11 -126 0z m144 -110 c106
-48 154 -115 152 -213 -1 -63 -14 -102 -55 -159 -54 -77 -167 -109 -259 -74
-62 24 -129 101 -145 167 -46 192 136 357 307 279z"/>
<path d="M37348 9078 l-28 -10 0 -159 0 -160 48 3 47 3 3 58 c3 55 4 57 30 57
32 0 52 -16 52 -42 0 -9 5 -29 12 -43 9 -21 18 -25 51 -25 33 0 38 3 32 18 -4
9 -14 39 -21 66 -8 28 -19 53 -26 57 -9 6 -4 15 15 33 46 42 31 114 -30 145
-27 13 -148 13 -185 -1z m126 -68 c36 -13 34 -44 -3 -60 -16 -6 -38 -10 -48
-8 -25 5 -30 48 -7 65 21 16 25 16 58 3z"/>
<path d="M7075 8240 c-3 -4 1 -12 8 -17 22 -17 67 -43 67 -40 0 10 -71 64 -75
57z"/>
<path d="M3377 8223 c9 -23 64 -131 61 -118 -13 45 -52 135 -59 135 -5 0 -5
-8 -2 -17z"/>
<path d="M3407 8220 c6 -22 23 -38 23 -21 0 17 -12 41 -20 41 -5 0 -6 -9 -3
-20z"/>
<path d="M3461 8043 c-2 -23 23 -64 35 -59 7 3 15 0 18 -7 3 -9 5 -9 5 0 1 7
-8 17 -20 23 -11 6 -24 21 -29 33 -5 12 -9 17 -9 10z"/>
<path d="M3540 7870 c0 -5 5 -10 11 -10 5 0 7 5 4 10 -3 6 -8 10 -11 10 -2 0
-4 -4 -4 -10z"/>
<path d="M5486 7826 c9 -24 34 -28 34 -6 0 13 -7 20 -20 20 -13 0 -17 -5 -14
-14z"/>
</g>
</svg>
