<?xml version="1.0" standalone="no"?>
<!DOCTYPE svg PUBLIC "-//W3C//DTD SVG 20010904//EN"
 "http://www.w3.org/TR/2001/REC-SVG-20010904/DTD/svg10.dtd">
<svg version="1.0" xmlns="http://www.w3.org/2000/svg"
 width="2560.000000pt" height="1217.000000pt" viewBox="0 0 2560.000000 1217.000000"
 preserveAspectRatio="xMidYMid meet">

<g transform="translate(0.000000,1217.000000) scale(0.100000,-0.100000)"
fill="#000000" stroke="none">
<path d="M20115 12144 c-16 -3 -154 -18 -305 -35 -1362 -148 -3339 -498 -5565
-984 -236 -52 -565 -119 -730 -150 -949 -177 -1300 -263 -1692 -416 -348 -137
-572 -322 -748 -620 -58 -98 -127 -262 -147 -349 -12 -51 -12 -52 -42 -45
-221 48 -511 67 -682 45 -252 -31 -544 -134 -771 -271 -152 -92 -273 -192
-442 -365 -91 -92 -166 -163 -168 -158 -13 40 -102 171 -154 228 -193 210
-538 365 -970 436 -129 21 -357 27 -451 11 l-46 -8 -19 41 c-47 106 -170 241
-306 337 -241 169 -768 321 -1112 321 -168 0 -287 -28 -433 -101 -168 -83
-325 -251 -406 -435 -26 -58 -26 -58 -48 -42 -483 344 -1154 476 -1712 335
-202 -51 -426 -151 -572 -256 -536 -382 -1072 -1193 -1504 -2271 -336 -842
-574 -1752 -671 -2567 -30 -258 -38 -743 -15 -945 44 -378 140 -631 339 -895
214 -282 522 -484 931 -611 60 -19 115 -34 122 -34 29 0 12 -17 -42 -43 -409
-201 -976 -599 -1270 -892 -155 -154 -291 -336 -343 -459 -52 -119 -64 -273
-32 -398 49 -190 160 -326 356 -437 155 -87 221 -106 365 -106 122 1 191 16
281 61 68 34 139 50 492 109 216 36 424 79 631 130 823 202 1640 387 2506 569
559 117 1358 276 1390 276 15 0 59 -11 99 -25 91 -31 231 -61 346 -74 329 -37
515 -18 712 74 137 64 245 154 320 267 29 43 1 36 423 108 1742 298 3554 564
5538 814 l593 75 62 -34 c231 -126 707 -220 989 -194 272 25 498 153 646 365
21 31 22 31 159 43 388 34 681 75 988 136 713 143 1262 386 1720 760 126 103
309 293 401 415 179 239 238 402 239 655 0 112 -3 140 -24 199 -84 243 -286
407 -535 436 -70 7 -142 2 -491 -35 -983 -105 -1968 -205 -1973 -200 -3 3 25
191 62 418 80 493 613 3691 659 3962 l33 190 95 18 c198 37 551 99 984 172
742 125 1064 185 1185 222 396 119 734 386 1121 888 117 151 272 371 298 421
58 118 79 311 46 439 -56 213 -233 397 -444 459 -55 16 -212 28 -266 20z m85
-639 c0 -3 -41 -63 -92 -133 -284 -393 -514 -631 -733 -760 -38 -23 -117 -57
-175 -76 -115 -37 -176 -49 -1040 -196 -879 -149 -1254 -218 -1486 -276 -106
-27 -131 -40 -138 -71 -38 -184 -476 -2793 -795 -4738 -120 -729 -171 -1045
-171 -1051 0 -3 17 -3 38 0 78 13 1362 150 2477 265 319 33 595 63 614 65 l34
5 -6 -49 c-8 -70 -36 -127 -108 -222 -248 -327 -658 -606 -1144 -777 -457
-161 -944 -245 -1765 -306 -113 -8 -228 -17 -256 -21 l-51 -5 -16 -96 c-43
-260 -135 -304 -512 -246 -126 19 -283 66 -358 105 -52 28 -128 97 -138 126
-9 27 -2698 -330 -4249 -564 -920 -139 -2765 -443 -2966 -489 -17 -4 -22 -15
-27 -57 -23 -192 -101 -268 -277 -268 -205 0 -424 44 -549 111 l-79 42 -118
-23 c-1208 -226 -3000 -617 -4174 -910 -85 -21 -292 -61 -460 -89 -331 -55
-560 -107 -616 -140 l-36 -21 -49 26 c-27 15 -49 31 -49 35 0 13 121 172 174
228 65 69 256 229 410 343 261 196 528 357 840 509 507 246 854 349 1741 515
361 67 444 85 825 174 444 104 804 180 1451 306 24 5 26 10 43 122 54 368 335
2186 396 2566 11 71 19 130 18 132 -5 4 -602 -118 -610 -125 -8 -7 -130 -709
-273 -1576 -52 -313 -100 -590 -107 -615 -18 -67 -78 -126 -147 -147 -139 -40
-563 32 -718 122 -64 38 -118 106 -137 173 -36 128 -11 448 110 1415 25 203
44 371 40 374 -4 4 -310 -54 -323 -62 -1 0 -16 -64 -33 -140 -40 -183 -75
-308 -172 -605 -43 -135 -111 -353 -149 -485 -86 -294 -197 -658 -215 -705 -7
-19 -51 -143 -98 -276 -183 -523 -313 -714 -485 -714 -39 0 -67 9 -131 42
-107 56 -149 93 -188 167 -72 135 -87 281 -52 500 11 68 19 126 16 128 -2 2
-36 -12 -75 -32 -273 -137 -600 -161 -955 -70 -297 77 -527 214 -669 400 -173
227 -229 443 -230 875 0 378 46 766 149 1250 283 1328 864 2664 1449 3333 301
345 518 469 887 508 309 33 720 -73 963 -246 181 -129 303 -335 346 -585 15
-92 15 -315 0 -430 -42 -302 -160 -659 -346 -1047 -53 -110 -83 -163 -94 -163
-22 0 -173 91 -256 155 -84 64 -212 192 -260 259 -76 108 -91 191 -105 574 -6
165 -16 304 -24 343 -27 123 -71 179 -144 179 -79 0 -232 -118 -343 -265 -325
-430 -721 -1294 -930 -2029 -200 -708 -253 -1811 -103 -2147 30 -65 46 -79 94
-79 149 0 442 346 658 776 l31 61 -87 6 c-277 19 -428 181 -487 521 -21 121
-19 162 9 222 40 87 76 106 366 202 403 133 585 180 1525 392 387 88 596 137
601 143 3 3 30 155 59 339 150 929 339 2017 439 2519 67 340 100 415 205 468
60 31 124 35 256 16 286 -41 578 -142 678 -235 95 -87 98 -162 19 -570 -42
-219 -180 -994 -365 -2050 -19 -107 -33 -197 -31 -198 4 -5 588 119 596 127 3
3 34 179 68 391 92 582 229 1399 256 1537 38 193 77 260 176 304 45 20 69 23
158 22 260 -2 657 -132 756 -246 46 -55 68 -132 61 -213 -3 -33 -33 -196 -66
-360 -74 -365 -230 -1198 -226 -1202 2 -2 107 16 235 40 l232 43 35 85 c53
130 222 470 303 610 273 472 651 936 910 1119 154 108 382 204 553 231 114 19
342 7 487 -24 277 -59 461 -147 608 -290 246 -238 327 -554 293 -1141 -70
-1191 -521 -2446 -1156 -3220 -304 -370 -594 -534 -1000 -565 -359 -27 -796
81 -1002 246 -206 166 -324 372 -382 665 -36 185 -44 297 -38 568 6 252 16
356 57 590 12 62 18 116 15 119 -6 6 -317 -57 -327 -66 -12 -12 -493 -2841
-484 -2849 2 -2 192 28 422 66 462 77 801 132 1514 246 261 42 840 136 1285
210 446 75 827 138 848 141 20 3 37 8 37 10 0 18 -161 406 -196 472 -44 84
-52 96 -157 248 -161 232 -175 367 -51 484 110 104 312 173 509 173 181 1 303
-42 405 -142 101 -99 166 -216 256 -463 94 -259 141 -297 294 -239 117 44 344
209 413 300 230 302 246 590 44 794 -103 105 -220 180 -542 347 -322 168 -401
228 -517 390 -253 355 -287 837 -94 1310 183 445 530 943 921 1318 169 163
311 268 460 342 163 82 280 112 440 112 141 1 235 -18 396 -82 215 -85 381
-190 514 -324 73 -73 99 -108 133 -176 59 -121 75 -198 75 -360 0 -153 -23
-310 -79 -535 -111 -447 -311 -984 -416 -1118 -80 -101 -182 -116 -353 -52
-390 145 -556 387 -489 711 8 42 49 191 90 331 107 367 147 533 127 533 -31 0
-164 -114 -266 -228 -100 -111 -180 -217 -250 -329 -243 -393 -293 -708 -144
-910 88 -118 205 -219 668 -573 146 -112 310 -267 380 -359 60 -80 122 -203
145 -291 24 -94 22 -262 -5 -366 -41 -159 -144 -432 -218 -578 -47 -92 -152
-263 -212 -344 -34 -45 -60 -82 -58 -82 20 1 790 99 792 102 2 2 22 149 44
328 23 179 53 408 66 510 13 102 42 329 65 505 78 610 171 1311 201 1515 73
498 263 1653 393 2389 42 234 74 427 71 429 -10 10 -2726 -550 -3355 -693
-226 -51 -268 -52 -319 -9 -45 38 -56 82 -56 229 0 146 10 190 75 312 110 206
234 303 523 407 320 116 646 195 1277 312 359 66 622 118 920 184 1005 222
2351 489 3325 660 863 151 1585 256 2295 334 248 28 250 28 250 21z"/>
<path d="M10405 7965 c-129 -69 -334 -335 -536 -695 -34 -61 -59 -113 -56
-117 4 -3 62 4 130 15 68 12 144 22 169 22 60 0 105 -31 140 -99 34 -65 36
-122 8 -212 -10 -35 -30 -117 -44 -181 -42 -200 -104 -284 -270 -366 -98 -48
-202 -81 -401 -125 l-150 -33 -18 -55 c-58 -170 -140 -547 -173 -799 -21 -156
-23 -432 -5 -515 26 -117 71 -175 135 -175 43 0 128 53 198 124 132 134 248
314 394 609 315 639 553 1490 605 2165 14 183 2 330 -34 402 -25 51 -46 59
-92 35z"/>
<path d="M22625 11673 c-633 -53 -980 -149 -1339 -371 -98 -61 -236 -163 -301
-223 -22 -20 -54 -49 -71 -63 -63 -52 -227 -250 -310 -376 -141 -211 -217
-375 -406 -880 -132 -354 -165 -435 -229 -563 -86 -173 -188 -314 -321 -445
-68 -67 -80 -74 -139 -88 -233 -54 -428 -259 -475 -499 -16 -84 -14 -185 7
-273 18 -75 84 -202 135 -260 46 -52 46 -54 28 -72 -44 -43 -199 -137 -329
-200 -173 -84 -299 -129 -480 -169 -190 -43 -265 -81 -371 -186 -63 -63 -90
-99 -123 -165 -42 -87 -71 -202 -71 -285 0 -199 114 -411 336 -625 227 -218
527 -378 821 -437 93 -19 415 -25 501 -10 l42 7 0 -98 c0 -185 55 -319 184
-448 134 -134 251 -179 526 -204 301 -26 586 4 855 91 160 52 311 128 480 239
79 53 141 88 143 81 2 -6 23 -37 47 -69 117 -156 324 -251 615 -284 293 -32
792 97 1163 302 235 130 362 227 583 442 83 82 154 148 157 148 4 0 28 -16 54
-37 128 -97 305 -146 461 -126 245 31 413 164 540 426 196 404 225 880 81
1312 -82 246 -193 422 -454 720 -186 213 -200 232 -244 326 -88 191 -93 248
-90 1064 3 605 1 693 -14 800 -70 478 -233 821 -514 1085 -239 223 -536 356
-908 405 -106 14 -446 19 -570 8z m544 -650 c436 -71 704 -342 795 -803 34
-174 38 -273 31 -895 -5 -431 -4 -645 4 -730 30 -313 122 -573 275 -779 35
-46 123 -152 196 -235 217 -245 282 -342 338 -503 44 -125 62 -232 62 -373 0
-129 -17 -244 -50 -341 -29 -84 -82 -194 -90 -189 -4 3 -10 24 -12 47 -12 105
-101 220 -195 252 -58 20 -161 20 -232 1 -137 -36 -229 -104 -511 -380 -246
-241 -277 -268 -417 -359 -339 -222 -813 -351 -1036 -283 l-58 18 32 26 c41
35 79 116 79 169 0 92 -96 220 -211 281 -49 25 -63 28 -144 27 -175 -3 -376
-91 -704 -307 -256 -169 -340 -211 -512 -256 -130 -33 -259 -44 -433 -38 -226
9 -219 4 -131 92 49 50 84 95 106 141 30 61 34 78 34 149 0 63 -5 90 -23 126
-31 63 -113 142 -191 183 -167 87 -299 100 -636 66 -274 -28 -404 -25 -518 14
-154 52 -295 136 -410 245 -60 57 -127 141 -127 159 0 5 28 15 63 22 285 56
649 209 914 386 350 233 588 512 727 848 22 54 21 56 -28 56 -49 0 -241 46
-328 80 -62 23 -149 78 -155 96 -2 7 15 14 44 19 117 17 201 70 364 229 233
226 398 472 537 796 27 63 106 266 175 450 220 588 308 752 517 973 263 278
584 435 1015 496 362 52 631 59 844 24z"/>
<path d="M21693 9739 c-45 -22 -83 -70 -109 -139 -25 -63 -25 -280 -1 -370 60
-221 160 -368 301 -440 52 -26 69 -30 146 -30 94 0 249 25 405 65 178 46 569
185 597 213 12 12 -285 240 -507 388 -242 162 -410 253 -564 304 -111 37 -205
41 -268 9z"/>
<path d="M23682 9504 c-56 -20 -152 -76 -227 -133 -68 -51 -274 -232 -320
-280 -37 -40 -34 -42 106 -76 255 -61 436 -70 501 -26 80 55 130 169 132 301
2 176 -71 258 -192 214z"/>
</g>
</svg>
