<?xml version="1.0" standalone="no"?>
<!DOCTYPE svg PUBLIC "-//W3C//DTD SVG 20010904//EN"
 "http://www.w3.org/TR/2001/REC-SVG-20010904/DTD/svg10.dtd">
<svg version="1.0" xmlns="http://www.w3.org/2000/svg"
 width="5000.000000pt" height="2813.000000pt" viewBox="0 0 5000.000000 2813.000000"
 preserveAspectRatio="xMidYMid meet">

<g transform="translate(0.000000,2813.000000) scale(0.100000,-0.100000)"
fill="#000000" stroke="none">
<path d="M14212 18921 c-1259 -1389 -1910 -2191 -2487 -3061 -1282 -1934
-1728 -3796 -1218 -5080 256 -645 795 -1214 1436 -1515 420 -197 848 -299
1414 -339 252 -18 413 -18 688 0 838 54 1658 228 2680 568 565 188 977 348
1905 741 588 248 2569 1084 3300 1392 228 96 514 217 635 268 121 51 321 136
445 188 339 143 1670 704 1960 827 140 59 428 181 640 270 212 89 500 211 640
270 140 59 343 145 450 190 107 45 310 131 450 190 140 59 428 181 640 270
212 89 500 211 640 270 140 59 343 145 450 190 107 45 310 131 450 190 140 59
426 180 635 268 715 301 1740 734 2380 1004 352 148 809 341 1015 428 206 87
636 268 955 403 319 135 725 306 903 381 407 172 902 381 1192 503 124 52 367
155 540 228 173 73 416 176 540 228 361 152 845 357 1193 503 177 75 437 185
577 244 140 59 290 122 333 140 43 18 76 34 75 36 -2 2 -44 -8 -93 -21 -91
-25 -235 -63 -1855 -491 -487 -129 -961 -254 -1055 -279 -93 -25 -647 -171
-1230 -325 -583 -154 -1136 -300 -1230 -325 -93 -25 -647 -171 -1230 -325
-583 -154 -1134 -300 -1225 -324 -91 -24 -244 -64 -340 -90 -324 -85 -1540
-406 -1730 -457 -58 -15 -276 -73 -485 -128 -209 -55 -713 -188 -1120 -296
-407 -107 -816 -215 -910 -240 -168 -44 -2167 -572 -2422 -640 -333 -88 -435
-115 -1023 -270 -344 -91 -699 -185 -790 -209 -91 -24 -235 -62 -320 -84 -85
-23 -564 -149 -1065 -282 -865 -228 -1099 -290 -1385 -366 -854 -227 -1766
-466 -1930 -506 -789 -192 -1583 -282 -2182 -249 -770 43 -1311 220 -1747 571
-417 336 -713 793 -840 1296 -69 273 -93 477 -93 784 0 506 95 1023 298 1628
176 524 469 1154 760 1633 29 49 52 89 51 89 -2 0 -121 -130 -265 -289z"/>
</g>
</svg>
