<?xml version="1.0" encoding="UTF-8"?>
<svg width="600" height="270" version="1.1" xmlns="http://www.w3.org/2000/svg">
 <path d="m587.63 9.77v44.101h-48.815v54.542h38.375v45.102h-38.375v61.607h51.178v45.114h-95.942v-250.47zm-254.82 0h55.205l17.18 126.58 17.168-126.58h51.504v250.47h-40.4v-148.12l-22.219 148.12h-16.83l-22.557-148.12v148.12h-39.05zm-64.966 250.46v-250.47h44.776v250.47zm-85.494-148.46h8.7527c8.7527 0 12.454-3.3638 12.454-15.154v-33.998c0-10.766-2.0136-14.142-11.104-14.142h-10.103zm0 148.46h-44.776v-250.47h70.697c27.271 0 41.075 15.154 41.075 41.75v40.062c0 20.194-11.453 30.297-19.868 33.661 7.4142 2.7003 19.193 10.766 19.193 29.622v85.176c0 10.766 2.0136 15.48 3.7013 18.506v1.6877h-44.776c-2.0136-2.7003-4.0388-8.0777-4.0388-19.193v-73.048c0-11.441-2.6887-14.805-11.779-14.805h-9.4278zm-127.58-141.05h8.4152c10.103 0 11.453-6.4016 11.453-14.142v-41.75c0-8.7527-1.3502-14.805-11.453-14.805h-8.4152zm0 40.726v100.32h-44.776v-250.45h63.632c38.037 0 46.115 18.856 46.115 49.49v50.154c0 30.635-12.454 50.491-43.764 50.491z"/>
</svg>
