<?xml version="1.0" standalone="no"?>
<!DOCTYPE svg PUBLIC "-//W3C//DTD SVG 20010904//EN"
 "http://www.w3.org/TR/2001/REC-SVG-20010904/DTD/svg10.dtd">
<svg version="1.0" xmlns="http://www.w3.org/2000/svg"
 width="736.000000pt" height="460.000000pt" viewBox="0 0 736.000000 460.000000"
 preserveAspectRatio="xMidYMid meet">

<g transform="translate(0.000000,460.000000) scale(0.100000,-0.100000)"
fill="#000000" stroke="none">
<path d="M2669 4153 c-2 -22 3 -258 6 -261 3 -4 448 -3 451 1 1 1 4 61 5 132
2 107 0 130 -12 130 -8 0 -13 -8 -12 -19 2 -29 -44 -96 -67 -96 -20 0 -60 63
-57 91 4 34 -16 20 -30 -21 -19 -57 -30 -70 -58 -70 -16 0 -26 10 -38 38 -9
20 -17 45 -19 55 -5 30 -23 20 -30 -18 -12 -55 -26 -75 -53 -75 -19 0 -30 10
-45 40 -11 22 -20 43 -19 47 3 19 -2 33 -11 33 -5 0 -10 -3 -11 -7z"/>
<path d="M5160 4110 c-47 -11 -395 -80 -775 -155 -379 -75 -708 -144 -730
-154 -62 -27 -93 -72 -190 -274 -49 -103 -92 -183 -96 -179 -4 4 -23 45 -43
92 l-36 84 40 41 40 41 0 91 0 92 -35 10 c-26 7 -52 5 -105 -9 l-71 -18 -62
28 c-58 27 -67 28 -130 20 -40 -5 -95 -4 -132 1 -58 8 -68 6 -127 -21 l-65
-29 -72 19 c-54 14 -80 16 -106 9 l-35 -10 0 -92 0 -91 41 -42 42 -42 -26
-144 -25 -143 74 -269 c72 -266 73 -269 111 -300 21 -17 101 -85 179 -151 77
-66 187 -158 243 -205 l103 -85 -7 -180 c-4 -99 -8 -182 -11 -184 -3 -4 -63
11 -99 25 -10 4 -105 -130 -105 -150 0 -3 110 -6 244 -6 l243 0 66 203 c36
111 87 268 113 350 26 81 50 147 53 147 3 -1 208 -51 455 -113 l450 -113 23
-44 c13 -25 53 -101 89 -168 36 -68 63 -126 60 -129 -3 -3 -26 1 -51 9 l-45
15 -40 -72 c-22 -40 -40 -75 -40 -79 0 -3 95 -5 211 -4 l211 3 45 57 45 57
-41 213 -41 213 0 291 0 290 38 17 c40 18 60 45 64 87 3 23 0 25 -52 30 -52 5
-62 11 -183 108 -132 105 -171 129 -267 165 -52 20 -79 21 -494 25 l-439 3
-80 -78 c-44 -43 -76 -69 -72 -58 4 11 39 101 77 200 38 99 78 204 89 233 30
77 63 98 195 122 336 60 622 104 949 145 110 14 215 29 233 34 53 16 119 58
148 96 22 29 54 110 54 137 0 10 3 10 -100 -12z m-2203 -501 c29 -23 53 -49
54 -58 0 -9 3 -47 8 -84 5 -51 4 -73 -6 -88 -21 -29 -38 -23 -72 23 l-31 41
23 11 c15 8 23 22 25 44 l3 32 -60 0 c-61 0 -61 0 -61 -29 0 -19 8 -35 22 -45
l21 -15 -27 -41 c-29 -44 -45 -49 -69 -22 -14 16 -15 29 -7 103 5 46 10 85 10
86 0 3 105 83 109 83 2 0 28 -19 58 -41z"/>
<path d="M4980 3759 c-30 -4 -149 -19 -265 -33 -674 -82 -873 -108 -898 -118
-27 -11 -74 -65 -64 -74 3 -3 117 2 254 10 136 9 397 25 578 36 341 20 407 30
459 71 26 21 47 54 60 97 7 20 4 22 -31 21 -21 -1 -63 -5 -93 -10z"/>
<path d="M4619 3486 c-2 -2 -112 -6 -244 -10 -302 -8 -490 -15 -581 -22 -70
-5 -71 -6 -83 -40 -7 -20 -11 -37 -9 -39 1 -1 251 0 555 4 540 6 552 6 580 27
15 12 36 35 46 53 l19 31 -139 0 c-77 0 -142 -2 -144 -4z"/>
<path d="M2667 2503 c-4 -3 -7 -18 -7 -33 0 -32 -80 -633 -85 -638 -1 -2 -26
9 -55 23 -29 14 -53 25 -54 23 -9 -12 -76 -137 -76 -142 0 -3 103 -6 229 -6
l228 0 92 245 93 244 -34 29 c-57 51 -317 262 -321 262 -2 0 -7 -3 -10 -7z"/>
<path d="M4045 2218 c10 -47 55 -327 55 -346 0 -20 0 -20 -61 -1 -34 11 -63
18 -64 17 -23 -32 -87 -132 -91 -143 -6 -14 22 -15 242 -13 l248 3 42 200 c23
110 41 201 40 203 -4 4 -390 102 -404 102 -8 0 -11 -8 -7 -22z"/>
<path d="M403 1451 c-74 -25 -125 -62 -161 -116 -99 -150 -44 -416 102 -492
58 -30 94 -35 306 -42 215 -6 215 -6 218 -29 8 -51 4 -52 -339 -52 -248 0
-319 -3 -319 -12 -1 -100 -2 -246 -1 -256 1 -11 72 -12 374 -10 419 4 431 6
509 81 65 63 82 114 83 242 0 98 -3 116 -26 165 -31 67 -79 116 -139 144 -40
19 -69 22 -264 26 -207 5 -219 6 -226 25 -4 11 -4 30 1 43 l8 22 386 0 385 0
2 -367 3 -368 150 0 150 0 3 367 2 366 159 4 c197 4 194 2 273 154 32 60 57
112 58 117 0 4 -370 7 -822 7 -765 -1 -827 -2 -875 -19z"/>
<path d="M2320 1459 c-38 -12 -105 -58 -125 -86 -21 -29 -54 -92 -220 -413
-87 -168 -182 -351 -211 -408 -30 -57 -54 -105 -54 -108 0 -2 73 -4 163 -4
l163 0 39 79 38 80 193 3 c227 4 229 4 284 116 19 39 38 71 43 71 4 1 46 -78
94 -173 l87 -175 163 0 163 0 -120 237 c-136 270 -256 502 -318 613 -74 135
-128 171 -262 175 -47 2 -101 -1 -120 -7z m200 -430 c50 -100 90 -183 90 -185
0 -2 -83 -4 -185 -4 -102 0 -185 2 -185 5 0 10 180 365 185 365 3 0 46 -82 95
-181z"/>
<path d="M3232 958 l3 -513 138 -3 137 -3 0 291 c0 159 4 290 8 290 5 0 74
-100 153 -222 79 -122 163 -241 185 -264 72 -73 89 -78 272 -84 l162 -5 0 513
0 513 -142 -3 -143 -3 -3 -305 -2 -305 -63 95 c-34 53 -107 165 -161 250 -117
183 -144 215 -211 246 -45 22 -63 24 -193 24 l-142 0 2 -512z"/>
<path d="M4417 1464 c-12 -12 -8 -818 4 -874 15 -70 57 -116 123 -135 42 -12
105 -15 327 -13 l274 3 3 127 3 128 -218 2 -218 3 -5 380 -5 380 -141 3 c-77
1 -143 -1 -147 -4z"/>
<path d="M5240 1018 c0 -423 2 -456 19 -495 37 -80 26 -78 456 -78 l380 0 3
127 3 128 -268 2 -268 3 0 65 0 65 243 3 242 2 0 120 0 120 -242 2 -243 3 -3
63 -3 62 287 -2 287 -3 108 -165 c188 -285 173 -249 179 -435 l5 -160 140 0
140 0 5 155 c3 101 10 163 18 178 7 13 100 157 206 320 105 163 202 314 215
335 l23 37 -160 0 -160 0 -138 -220 c-77 -121 -143 -219 -147 -217 -5 1 -68
99 -141 217 l-132 215 -527 3 -527 2 0 -452z"/>
<path d="M6892 635 c-37 -16 -64 -68 -55 -106 3 -13 17 -36 31 -51 20 -22 35
-28 68 -28 56 0 94 37 94 92 0 52 -15 77 -55 94 -41 17 -42 17 -83 -1z m94
-29 c58 -49 25 -140 -51 -140 -42 0 -72 26 -81 71 -5 27 -1 37 24 63 37 36 71
39 108 6z"/>
<path d="M6900 545 c0 -30 5 -55 10 -55 6 0 10 12 10 28 l1 27 20 -27 c26 -35
42 -36 27 -3 -8 19 -8 28 2 40 18 21 -4 45 -41 45 -28 0 -29 -1 -29 -55z m50
25 c0 -5 -7 -10 -15 -10 -8 0 -15 5 -15 10 0 6 7 10 15 10 8 0 15 -4 15 -10z"/>
</g>
</svg>
